<?xml version="1.0" encoding="UTF-8"?>
<svg version="1.1" xmlns="http://www.w3.org/2000/svg" width="200" height="200">
    <path
        d="M0 0 C2.81765288 2.25877958 5.55805558 4.58043923 8.2734375 6.9609375 C8.98628906 7.57710937 9.69914063 8.19328125 10.43359375 8.828125 C16.69519676 14.62913295 20.93953618 21.68341608 25.2734375 28.9609375 C25.92505859 30.04375 25.92505859 30.04375 26.58984375 31.1484375 C34.48335125 45.51152566 35.88419106 62.02753747 34.2734375 77.9609375 C35.10875 78.07308594 35.10875 78.07308594 35.9609375 78.1875 C44.33441071 79.6302268 49.67359603 83.4629037 54.7734375 90.2109375 C57.79750957 95.09724469 58.21891743 99.34535976 57.2734375 104.9609375 C55.98784956 108.88912288 55.04131422 110.43073691 51.6484375 112.7734375 C45.45065293 114.95413948 40.22939047 115.15139547 33.7734375 114.0859375 C29.22288711 113.58385163 27.1393816 114.21308639 23.5234375 117.0234375 C22.08401248 118.31093752 20.66638276 119.62328874 19.2734375 120.9609375 C18.00910826 122.07254578 16.73876947 123.17737781 15.4609375 124.2734375 C14.93886719 124.74394531 14.41679687 125.21445313 13.87890625 125.69921875 C9.82179175 128.88765666 6.31924071 129.49311952 1.25390625 129.42578125 C-3.66009378 128.65937758 -7.89626508 126.43207146 -12.390625 124.375 C-18.13136461 121.94157173 -22.3632484 121.26824199 -28.3515625 123.0234375 C-31.06356172 124.58032594 -32.85212884 125.89207764 -35.1015625 127.9609375 C-40.24569669 132.6195579 -46.91869256 134.28015051 -53.7265625 134.9609375 C-54.50386719 135.07179687 -55.28117187 135.18265625 -56.08203125 135.296875 C-66.00079041 136.12701646 -72.45287659 130.76035019 -80.171875 125.19921875 C-83.62790979 123.52404592 -85.91645288 123.54305451 -89.7265625 123.9609375 C-92.25705697 124.99639147 -94.48329785 126.02428323 -96.8515625 127.3359375 C-105.46683767 131.93324269 -111.79361054 134.23786989 -121.7265625 132.9609375 C-127.1230656 131.08185774 -132.16910879 128.50452207 -135.4140625 123.6484375 C-137.27592939 118.41747815 -137.81749506 114.02087029 -135.92578125 108.71484375 C-134.59071507 105.90553462 -133.44294066 103.58564642 -131.078125 101.5234375 C-129.5130234 100.03110392 -129.5130234 100.03110392 -129.58203125 97.796875 C-129.69160156 96.98476562 -129.80117187 96.17265625 -129.9140625 95.3359375 C-130.01074219 94.53929687 -130.10742188 93.74265625 -130.20703125 92.921875 C-130.49502416 91.28053197 -130.8067415 89.64106844 -131.21191406 88.0246582 C-132.76652988 81.78028466 -133.11184962 75.82222878 -133.1015625 69.3984375 C-133.09995117 68.34648193 -133.09833984 67.29452637 -133.09667969 66.21069336 C-132.9048525 53.90460327 -130.25491526 43.01764302 -124.7265625 31.9609375 C-125.5103125 31.5484375 -126.2940625 31.1359375 -127.1015625 30.7109375 C-129.91355713 28.83627441 -130.51179623 28.01159488 -131.7265625 24.9609375 C-132.2489707 21.88697766 -132.26983002 19.03396588 -131.7265625 15.9609375 C-129.18164619 12.63840787 -126.63708437 10.43080149 -122.7265625 8.9609375 C-120.55637624 9.07280277 -118.38903748 9.24663818 -116.2265625 9.4609375 C-107.10262702 9.64113997 -102.8855925 4.83098076 -96.7265625 -1.0390625 C-69.75428503 -21.59414384 -26.71912861 -19.98192713 0 0 Z M-100.7265625 11.9609375 C-102.08484221 13.60733715 -103.41910501 15.27389557 -104.7265625 16.9609375 C-105.35691406 17.58097656 -105.98726562 18.20101562 -106.63671875 18.83984375 C-119.35353006 31.74681299 -125.39067661 50.25810573 -125.9140625 68.0859375 C-125.80302816 76.10816884 -124.84808485 84.36046469 -122.0390625 91.8984375 C-120.57717691 95.97513907 -120.39259081 98.72361567 -121.7265625 102.9609375 C-122.68428425 104.12214121 -123.68880625 105.24566828 -124.7265625 106.3359375 C-127.74400736 109.61096912 -129.00743533 112.32462676 -129.19921875 116.8046875 C-128.59037783 119.58220973 -127.66136585 120.64482242 -125.5390625 122.5234375 C-120.08591961 125.88794161 -114.93315322 126.22279755 -108.7265625 124.9609375 C-104.88217453 123.50630422 -101.34451494 121.58918801 -97.7578125 119.58984375 C-92.00290379 116.49732193 -86.17815824 116.06673965 -79.7265625 116.9609375 C-74.57021991 119.05484911 -70.08039119 121.88915645 -65.7265625 125.3359375 C-60.49570049 128.16932109 -54.93830911 127.65848872 -49.2265625 126.41796875 C-43.87121583 124.78060769 -39.09777492 122.42699842 -35.1640625 118.3359375 C-30.81105435 114.17219058 -24.87536503 114.49825182 -19.234375 114.5625 C-13.56837323 115.20607704 -8.77858982 117.41404769 -3.7265625 119.9609375 C-0.16800288 121.74021731 3.40625453 121.71823497 7.2734375 120.9609375 C10.31034363 118.99688232 12.70429105 116.48962495 15.2734375 113.9609375 C16.68983279 112.80947946 18.12690829 111.68287187 19.5859375 110.5859375 C20.22144531 110.10382813 20.85695312 109.62171875 21.51171875 109.125 C24.87008668 106.90594536 27.80195078 106.82532967 31.7109375 106.8359375 C33.13212891 106.83207031 33.13212891 106.83207031 34.58203125 106.828125 C37.2734375 106.9609375 37.2734375 106.9609375 39.35546875 107.55859375 C41.855749 108.08309246 43.18741349 107.49678084 45.5234375 106.5234375 C46.22984375 106.23597656 46.93625 105.94851562 47.6640625 105.65234375 C48.19515625 105.42417969 48.72625 105.19601563 49.2734375 104.9609375 C50.31189099 100.17492102 50.31189099 100.17492102 49.3984375 95.4609375 C42.74145046 87.62918804 36.48251649 84.80737552 26.2734375 83.9609375 C26.4384375 82.9503125 26.6034375 81.9396875 26.7734375 80.8984375 C29.26315618 60.54769347 24.97709705 40.99216231 13.28515625 24.0859375 C11.35658763 21.62935301 9.36634655 19.27853261 7.2734375 16.9609375 C6.69722656 16.31511719 6.12101563 15.66929688 5.52734375 15.00390625 C1.27845936 10.49989254 -3.51222499 7.25188148 -8.7265625 3.9609375 C-9.66757813 3.29707031 -10.60859375 2.63320313 -11.578125 1.94921875 C-39.37339926 -15.60387628 -76.78470022 -8.49383294 -100.7265625 11.9609375 Z M-123.7265625 18.9609375 C-124.0565625 19.9509375 -124.3865625 20.9409375 -124.7265625 21.9609375 C-122.97661175 24.16632634 -122.97661175 24.16632634 -120.8515625 24.0234375 C-117.40919026 22.30225138 -116.44623226 19.33886023 -114.7265625 15.9609375 C-119.02098048 15.9609375 -120.34788603 16.49541683 -123.7265625 18.9609375 Z "
        fill="#000000" transform="translate(139.7265625,40.0390625)" />
    <path
        d="M0 0 C2.38370909 2.38370909 2.29588602 2.9936599 2.3125 6.25 C2.20266912 11.49653667 0.75147163 15.24852837 -3 19 C-6.625 19.125 -6.625 19.125 -10 19 C-9.38461538 12.47692308 -9.38461538 12.47692308 -7.4375 10.0625 C-6.963125 9.711875 -6.48875 9.36125 -6 9 C-6.33 8.01 -6.66 7.02 -7 6 C-11.55875868 4.93982356 -13.7480568 5.25561305 -18 7 C-20.8125 6.625 -20.8125 6.625 -23 6 C-23.75 4.25 -23.75 4.25 -24 2 C-18.38835529 -5.27435426 -7.20209463 -4.68136151 0 0 Z "
        fill="#000000" transform="translate(123,46)" />
    <path
        d="M0 0 C2.475 0.99 2.475 0.99 5 2 C4.67 4.31 4.34 6.62 4 9 C2.35 9 0.7 9 -1 9 C-1.66 7.02 -2.32 5.04 -3 3 C-2.01 2.01 -1.02 1.02 0 0 Z "
        fill="#000000" transform="translate(51,75)" />
    <path
        d="M0 0 C1.99954746 -0.04254356 4.00041636 -0.04080783 6 0 C6.33 0.33 6.66 0.66 7 1 C6.71269945 3.33944736 6.38063221 5.6739143 6 8 C4.35 8 2.7 8 1 8 C0.26919734 6.02253397 -0.39421747 4.01927511 -1 2 C-0.67 1.34 -0.34 0.68 0 0 Z "
        fill="#000000" transform="translate(62,75)" />
</svg>